<svg width="457" height="457" viewBox="0 0 457 457" fill="none" xmlns="http://www.w3.org/2000/svg">
<mask id="mask0_411_77" style="mask-type:alpha" maskUnits="userSpaceOnUse" x="0" y="0" width="457" height="457">
<circle cx="228.5" cy="228.5" r="228.5" fill="#C4C4C4"/>
</mask>
<g mask="url(#mask0_411_77)">
<circle cx="228.5" cy="228.5" r="228.5" fill="url(#paint0_linear_411_77)"/>
<path d="M-247.87 340.797C-74.3512 330.312 161.5 315 178 321.5L180 348.935C173.5 349 139.359 324.543 -345 347.844L-247.87 340.797Z" fill="black"/>
<path d="M351.649 306.727L346.427 307.722C347.654 298.236 348.349 279.317 341.311 279.538L339.388 272.455C345.572 269.087 335.406 253.117 329.55 245.553L334.559 243.771L365.437 259.469L372.806 257.046L336.582 226.322L346.317 218.61C360.183 226.112 390.06 241.547 398.64 243.274L411.721 249.44L436.831 243.891C440.574 243.156 450.049 242.161 458 244.058C452.1 249.716 443.423 253.649 439.821 254.908L415.353 262.818L407.186 274.752C400.656 280.58 382.686 309.005 374.517 322.488L362.218 320.757L377.933 275.933L370.35 277.569L351.649 306.727Z" fill="black"/>
<path d="M338.961 270.881L341.311 279.538C348.349 279.317 347.654 298.236 346.427 307.722L351.649 306.727L370.35 277.569L377.933 275.933L362.218 320.757L374.517 322.488C382.686 309.005 400.656 280.58 407.186 274.752L415.353 262.818L439.821 254.908C443.423 253.649 452.1 249.716 458 244.058C450.049 242.161 440.574 243.156 436.831 243.891L411.721 249.44L398.64 243.274C390.06 241.547 360.183 226.112 346.317 218.61L336.582 226.322L372.806 257.046L365.437 259.469L334.559 243.771L329.55 245.553C335.406 253.117 345.572 269.087 339.388 272.455L341.738 281.112" stroke="black"/>
<path d="M199.06 351C195.167 351 191.125 350.699 186.932 350.098C182.74 349.571 179.259 348.932 176.489 348.18V321.11C179.259 321.862 181.879 322.388 184.35 322.689C186.745 323.065 189.478 323.253 192.547 323.253C197.188 323.253 201.119 321.937 204.338 319.305C207.557 316.749 209.166 311.673 209.166 304.078V169.403H243.415V309.154C243.415 316.824 241.955 323.817 239.036 330.133C236.116 336.525 231.4 341.601 224.887 345.36C218.374 349.12 209.765 351 199.06 351ZM207.706 136.806C207.706 130.339 209.503 125.94 213.096 123.609C216.764 121.203 221.181 120 226.347 120C231.437 120 235.817 121.203 239.485 123.609C243.153 125.94 244.987 130.339 244.987 136.806C244.987 143.198 243.153 147.634 239.485 150.116C235.817 152.522 231.437 153.725 226.347 153.725C221.181 153.725 216.764 152.522 213.096 150.116C209.503 147.634 207.706 143.198 207.706 136.806Z" fill="black"/>
<path d="M333.578 263.794C337.321 263.794 340.952 263.418 344.47 262.667C348.064 261.915 351.62 260.975 355.138 259.847V285.451C351.47 287.105 346.903 288.458 341.439 289.511C336.049 290.639 330.135 291.203 323.697 291.203C316.21 291.203 309.473 290 303.484 287.594C297.57 285.112 292.891 280.864 289.448 274.848C286.079 268.757 284.395 260.298 284.395 249.47V188.674H268V162.619H286.865L318.643 136V162.845H353.791V188.674H318.643V249.47C318.643 254.282 319.991 257.892 322.686 260.298C325.456 262.629 329.086 263.794 333.578 263.794Z" fill="black"/>
<path d="M188 251.667C188 261.296 185.657 269.667 180.97 276.778C176.284 283.889 169.44 289.37 160.438 293.222C151.512 297.074 140.651 299 127.856 299C122.202 299 116.66 298.63 111.229 297.889C105.873 297.148 100.703 296.074 95.7191 294.667C90.8094 293.185 86.1228 291.37 81.6594 289.222V257.222C89.396 260.63 97.4301 263.704 105.762 266.444C114.093 269.185 122.351 270.556 130.534 270.556C136.187 270.556 140.725 269.815 144.147 268.333C147.643 266.852 150.173 264.815 151.735 262.222C153.297 259.63 154.078 256.667 154.078 253.333C154.078 249.259 152.702 245.778 149.949 242.889C147.197 240 143.403 237.296 138.568 234.778C133.807 232.259 128.414 229.556 122.388 226.667C118.594 224.889 114.465 222.741 110.002 220.222C105.539 217.63 101.298 214.481 97.2813 210.778C93.2643 207.074 89.9539 202.593 87.3503 197.333C84.821 192 83.5564 185.63 83.5564 178.222C83.5564 168.519 85.7881 160.222 90.2515 153.333C94.7149 146.444 101.075 141.185 109.333 137.556C117.664 133.852 127.484 132 138.791 132C147.271 132 155.343 133 163.005 135C170.741 136.926 30.9586 211.63 39.3647 215.333L176.06 170.222C168.547 167.185 161.815 164.852 155.863 163.222C149.912 161.519 143.849 160.667 137.675 160.667C133.36 160.667 129.678 161.37 126.628 162.778C123.578 164.111 121.272 166.037 119.71 168.556C118.148 171 117.367 173.852 117.367 177.111C117.367 180.963 118.482 184.222 120.714 186.889C123.02 189.481 126.442 192 130.98 194.444C135.592 196.889 141.32 199.741 148.164 203C156.496 206.926 163.6 211.037 169.477 215.333C175.428 219.556 180.003 224.556 183.202 230.333C186.401 236.037 188 243.148 188 251.667Z" fill="black"/>
</g>
<defs>
<linearGradient id="paint0_linear_411_77" x1="42" y1="417.5" x2="505" y2="195" gradientUnits="userSpaceOnUse">
<stop stop-color="#BA2B2B"/>
<stop offset="1" stop-color="#FFCDA9"/>
</linearGradient>
</defs>
</svg>
