<svg width="1954" height="466" viewBox="0 0 1954 466" fill="none" xmlns="http://www.w3.org/2000/svg">
<path d="M304.601 261.67C304.601 281.39 299.823 298.531 290.266 313.094C280.709 327.656 266.752 338.882 248.397 346.77C230.193 354.658 208.045 358.602 181.953 358.602C170.424 358.602 159.123 357.843 148.049 356.326C137.126 354.809 126.583 352.61 116.42 349.728C106.407 346.694 96.8505 342.977 87.7486 338.578V273.047C103.525 280.025 119.909 286.32 136.899 291.933C153.889 297.545 170.727 300.352 187.414 300.352C198.943 300.352 208.197 298.835 215.175 295.801C222.305 292.767 227.463 288.595 230.648 283.286C233.834 277.977 235.427 271.909 235.427 265.083C235.427 256.74 232.62 249.61 227.007 243.694C221.395 237.778 213.658 232.242 203.798 227.084C194.089 221.926 183.091 216.39 170.803 210.474C163.067 206.833 154.647 202.434 145.546 197.276C136.444 191.967 127.797 185.52 119.605 177.936C111.413 170.351 104.663 161.174 99.3535 150.403C94.1958 139.481 91.6169 126.436 91.6169 111.267C91.6169 91.3949 96.1678 74.4053 105.27 60.2978C114.372 46.1904 127.342 35.4202 144.18 27.9873C161.17 20.4027 181.195 16.6104 204.253 16.6104C221.546 16.6104 238.006 18.6582 253.631 22.7539C269.407 26.6979 -15.6419 179.68 1.5 187.265L280.254 94.8838C264.932 88.6644 251.203 83.8861 239.067 80.5488C226.932 77.0599 214.568 75.3154 201.977 75.3154C193.179 75.3154 185.67 76.7565 179.45 79.6387C173.23 82.3691 168.528 86.3131 165.342 91.4707C162.157 96.4766 160.564 102.317 160.564 108.991C160.564 116.879 162.839 123.554 167.39 129.015C172.093 134.324 179.071 139.481 188.324 144.487C197.73 149.493 209.41 155.333 223.367 162.008C240.357 170.048 254.844 178.466 266.828 187.265C278.964 195.911 288.294 206.15 294.817 217.982C301.34 229.663 304.601 244.225 304.601 261.67Z" fill="black"/>
<path d="M456.417 94.8838C479.93 94.8838 500.182 99.4346 517.172 108.536C534.162 117.486 547.284 130.532 556.538 147.673C565.791 164.814 570.418 185.748 570.418 210.474V244.149H406.357C407.115 263.718 412.956 279.115 423.878 290.34C434.952 301.413 450.273 306.95 469.842 306.95C486.074 306.95 500.941 305.282 514.442 301.944C527.943 298.607 541.823 293.601 556.083 286.927V340.626C543.492 346.845 530.294 351.396 516.49 354.278C502.837 357.16 486.226 358.602 466.657 358.602C441.171 358.602 418.568 353.899 398.848 344.494C379.279 335.089 363.881 320.754 352.656 301.489C341.582 282.224 336.045 257.953 336.045 228.677C336.045 198.945 341.051 174.219 351.063 154.499C361.226 134.627 375.334 119.761 393.387 109.901C411.439 99.8896 432.449 94.8838 456.417 94.8838ZM456.872 144.26C443.371 144.26 432.145 148.583 423.195 157.229C414.397 165.876 409.315 179.452 407.95 197.959H505.34C505.188 187.644 503.292 178.466 499.651 170.427C496.162 162.387 490.853 156.016 483.723 151.313C476.745 146.611 467.794 144.26 456.872 144.26Z" fill="black"/>
<path d="M763.42 94.8838C790.574 94.8838 812.418 102.317 828.954 117.183C845.489 131.897 853.756 155.561 853.756 188.175V354.051H784.354V205.468C784.354 187.265 781.017 173.536 774.342 164.283C767.819 155.03 757.504 150.403 743.396 150.403C722.158 150.403 707.671 157.609 699.934 172.02C692.198 186.43 688.329 207.212 688.329 234.365V354.051H618.927V99.6621H671.946L681.275 132.2H685.144C690.605 123.402 697.355 116.272 705.395 110.812C713.587 105.351 722.613 101.331 732.474 98.752C742.486 96.1732 752.801 94.8838 763.42 94.8838Z" fill="black"/>
<path d="M997.835 358.602C969.468 358.602 946.334 347.528 928.434 325.381C910.685 303.082 901.811 270.392 901.811 227.312C901.811 183.776 910.837 150.858 928.889 128.56C946.941 106.109 970.53 94.8838 999.656 94.8838C1011.79 94.8838 1022.49 96.5524 1031.74 99.8896C1040.99 103.227 1048.96 107.702 1055.63 113.314C1062.46 118.927 1068.22 125.222 1072.93 132.2H1075.2C1074.29 127.346 1073.15 120.216 1071.79 110.812C1070.58 101.255 1069.97 91.4707 1069.97 81.459V0H1139.6V354.051H1086.35L1072.93 321.058H1069.97C1065.57 328.035 1060.03 334.407 1053.36 340.171C1046.83 345.784 1039.02 350.258 1029.92 353.596C1020.82 356.933 1010.12 358.602 997.835 358.602ZM1022.18 303.31C1041.15 303.31 1054.49 297.697 1062.23 286.472C1070.12 275.095 1074.29 258.029 1074.75 235.275V227.767C1074.75 203.041 1070.95 184.155 1063.37 171.109C1055.78 157.912 1041.68 151.313 1021.05 151.313C1005.72 151.313 993.74 157.912 985.093 171.109C976.446 184.307 972.123 203.344 972.123 228.222C972.123 253.099 976.446 271.833 985.093 284.424C993.891 297.014 1006.25 303.31 1022.18 303.31Z" fill="black"/>
<path d="M1183.78 466C1175.9 466 1167.7 465.393 1159.21 464.18C1150.71 463.118 1143.66 461.828 1138.05 460.312V405.702C1143.66 407.219 1149 408 1153.98 408.888C1158.83 409.646 1164.37 410.025 1170.59 410.025C1179.99 410.025 1187.96 407.371 1194.48 402.062C1201 396.904 1204.26 386.665 1204.26 371.344V99.6621H1273.67V381.583C1273.67 397.056 1270.71 411.163 1264.79 423.905C1258.87 436.799 1249.32 447.038 1236.12 454.623C1222.92 462.208 1205.48 466 1183.78 466ZM1201.31 33.9033C1201.31 20.8577 1204.95 11.9837 1212.23 7.28125C1219.66 2.42708 1228.61 0 1239.08 0C1249.39 0 1258.27 2.42708 1265.7 7.28125C1273.13 11.9837 1276.85 20.8577 1276.85 33.9033C1276.85 46.7972 1273.13 55.7471 1265.7 60.7529C1258.27 65.6071 1249.39 68.0342 1239.08 68.0342C1228.61 68.0342 1219.66 65.6071 1212.23 60.7529C1204.95 55.7471 1201.31 46.7972 1201.31 33.9033Z" fill="black"/>
<path d="M1443.68 94.8838C1467.2 94.8838 1487.45 99.4346 1504.44 108.536C1521.43 117.486 1534.55 130.532 1543.81 147.673C1553.06 164.814 1557.69 185.748 1557.69 210.474V244.149H1393.62C1394.38 263.718 1400.22 279.115 1411.15 290.34C1422.22 301.413 1437.54 306.95 1457.11 306.95C1473.34 306.95 1488.21 305.282 1501.71 301.944C1515.21 298.607 1529.09 293.601 1543.35 286.927V340.626C1530.76 346.845 1517.56 351.396 1503.76 354.278C1490.1 357.16 1473.49 358.602 1453.92 358.602C1428.44 358.602 1405.84 353.899 1386.12 344.494C1366.55 335.089 1351.15 320.754 1339.92 301.489C1328.85 282.224 1323.31 257.953 1323.31 228.677C1323.31 198.945 1328.32 174.219 1338.33 154.499C1348.49 134.627 1362.6 119.761 1380.65 109.901C1398.71 99.8896 1419.72 94.8838 1443.68 94.8838ZM1444.14 144.26C1430.64 144.26 1419.41 148.583 1410.46 157.229C1401.66 165.876 1396.58 179.452 1395.22 197.959H1492.61C1492.46 187.644 1490.56 178.466 1486.92 170.427C1483.43 162.387 1478.12 156.016 1470.99 151.313C1464.01 146.611 1455.06 144.26 1444.14 144.26Z" fill="black"/>
<path d="M1713.37 303.31C1720.96 303.31 1728.31 302.551 1735.44 301.034C1742.72 299.517 1749.93 297.621 1757.06 295.346V346.997C1749.63 350.334 1740.37 353.065 1729.3 355.188C1718.38 357.464 1706.39 358.602 1693.35 358.602C1678.18 358.602 1664.52 356.174 1652.39 351.32C1640.4 346.314 1630.92 337.744 1623.94 325.608C1617.12 313.321 1613.7 296.256 1613.7 274.412V151.769H1580.48V122.416L1618.71 99.207L1638.73 45.5078H1683.11V99.6621H1754.33V151.769H1683.11V274.412C1683.11 284.12 1685.84 291.402 1691.3 296.256C1696.91 300.958 1704.27 303.31 1713.37 303.31Z" fill="black"/>
<path d="M1739.12 394.969L1728.56 396.98C1731.04 377.813 1732.45 339.589 1718.23 340.035L1714.34 325.725C1726.84 318.919 1706.3 286.652 1694.46 271.369L1704.58 267.768L1766.97 299.487L1781.86 294.592L1708.67 232.515L1728.34 216.932C1756.36 232.089 1816.73 263.276 1834.06 266.764L1860.49 279.222L1911.23 268.011C1918.79 266.526 1937.94 264.516 1954 268.35C1942.08 279.78 1924.55 287.727 1917.27 290.271L1867.83 306.253L1851.33 330.365C1838.14 342.141 1801.83 399.571 1785.32 426.814L1760.47 423.317L1792.22 332.752L1776.9 336.058L1739.12 394.969Z" fill="black"/>
<path d="M456.059 181.631L406.551 142.021L506.745 143.907L456.059 181.631Z" fill="black"/>
<path d="M285.387 444.921C637.23 423.951 1114.9 392.496 1145.19 407.641L1142.86 461.231C1092.76 453.076 1067.13 412.301 84.9998 458.901L285.387 444.921Z" fill="black"/>
</svg>
